<svg xmlns="http://www.w3.org/2000/svg" viewBox="0 0 755.7 761.15"><defs><style>.cls-1{fill:#76777a;}.cls-2{fill:#00a6ce;}</style></defs><g id="Capa_2" data-name="Capa 2"><g id="Layer_1" data-name="Layer 1"><path class="cls-1" d="M748.92,314.9c.34.17.64.36,1,.54l-.43.07-1.37,1.66c-11.32,13.62-38.59,28.41-76.35,48.87C595.6,407.3,480.54,469.66,365.68,592.85c-49.81,53.42-103.94,76.25-161.16,68,3.31.21,6.62.4,9.9.4,57.28,0,110.31-31.88,157.93-95.06C529,358.37,690.93,326.38,744.13,315.86Z"/><path class="cls-1" d="M749.41,332.07c-16.55,42-81.74,84.69-164.15,138.61-65.64,42.93-140,91.6-216.93,155.71C318,668.36,264.41,684,208.83,673a170,170,0,0,0,18.52,1c52,0,101.24-24.58,146.73-73.37C487.67,478.88,601.74,417.05,677.22,376.14,709.73,358.52,734.66,345,749.41,332.07Z"/><path class="cls-1" d="M242.08,687.8c46.38,0,91.82-17.75,133.61-52.59,76.39-63.68,150.48-112.15,215.86-154.91,72.21-47.24,128-83.76,155.25-120.62-40.32,96.4-187.24,185.73-356,288.28l-19.66,11.95C320,691.05,264.62,699.5,210,684.87A185.87,185.87,0,0,0,242.08,687.8Z"/><path class="cls-1" d="M743.58,301.71a26.35,26.35,0,0,1,2.42,2l-4.1.83C687.64,315.31,522.5,348,363.18,559.29c-48.6,64.48-102.54,94.7-160.7,90,.33,0,.67,0,1,0,62,0,118.14-39.45,167-117.52,111.6-178.23,224.17-225.19,281.35-237.32C697.28,284.83,729,291.89,743.58,301.71Z"/><path class="cls-1" d="M262.07,703.42c39.33,0,78.23-11.28,115.05-33.68l19.65-12c162.76-98.91,305.46-185.66,354.42-280.34-29.36,118.1-165,232.26-377.05,316.05-52.92,20.9-108.61,22.06-162.55,3.69A211.84,211.84,0,0,0,262.07,703.42Z"/><path class="cls-1" d="M736.38,285.43c-19.07-7.08-48.74-10.31-86.9-2.22-59,12.51-174.85,60.64-288.72,242.47-47.8,76.34-102.14,114-161.83,112,64.38-2.29,121.42-49.31,169.67-140.3,103.92-196,209.06-236.17,262.49-242.69C680.08,248.72,716.87,266.09,736.38,285.43Z"/><path class="cls-1" d="M288.11,721.67a244.56,244.56,0,0,0,90.25-17.48c198-78.21,330.53-183.28,374.38-294.27C721.92,560,571.26,689.86,377.28,727.23c-49.09,9.46-103.89,4.32-156.16-15A245,245,0,0,0,288.11,721.67Z"/><path class="cls-1" d="M629.7,243.3C500.05,259.13,404.1,405.92,358.45,492c-46.3,87.3-100.29,132.42-160.57,134.32,1-.09,2-.14,2.93-.26,64.19-7.56,120-62.4,165.82-163,43.21-94.84,132.93-252,252.57-252,2.07,0,4.15,0,6.22.14,41.4,1.88,75.59,23.24,99.35,50.53C699,245.73,665.29,239,629.7,243.3Z"/><path class="cls-2" d="M215,723.18a299.2,299.2,0,0,0,108.61,20.7,295.18,295.18,0,0,0,55.88-5.36c184.8-35.6,331.24-153.79,376.23-294.66C725.47,623.67,568.79,761.13,380.53,761.15A380.07,380.07,0,0,1,215,723.18Z"/><path class="cls-2" d="M54.83,554.65c26.59,31.68,85.49,67,144.68,60,59.9-7.08,112.61-59.68,156.66-156.35C401.34,359.18,496.73,193.81,626,199.68,677.46,202,718.56,232.11,744,267.74a376.49,376.49,0,0,0-28.4-67.8A380.48,380.48,0,0,0,380.57,0C170.72,0,0,170.72,0,380.57A380.56,380.56,0,0,0,13.39,481S20.59,513.85,54.83,554.65Z"/></g></g></svg>